# xmcd
#
# Track frame offsets:
#	150
#	12372
#	28720
#	42000
#	54944
#	67590
#	78510
#	94392
#	105670
#	115385
#	132228
#	142408
#	152312
#	163080
#	176223
#	187270
#	200184
#	215828
#	226307
#	237688
#
# Disc length: 3348 seconds
#
# Revision: 1
# Processed by: cddbd v1.5.2PL0 Copyright (c) Steve Scherf et al.
# Submitted via: EasyCDDAExtractor 10.0.5.1
#
DISCID=270d1214
DTITLE=Various Artist - Country Greats - Disc 7
DYEAR=1900
DGENRE=Country
TTITLE0=Susan Raye - LA International Airport
TTITLE1=Colleen Hewett - When I Dream
TTITLE2=Ken Brumby - Maggie (Theme From The Truckies)
TTITLE3=Kenny Rogers - Reuben James
TTITLE4=Roger Miller - The Last Word In Lonesome Is Me
TTITLE5=Wanda Jackson - Sweet Nothin's
TTITLE6=Sylvia - Nobody (Live)
TTITLE7=Ray Price - Crazy Arms
TTITLE8=Dave Dudley - Cowboy Boots
TTITLE9=Johhny Chester - Gotta Get Back To Tamworth
TTITLE10=Warner Mack - The Bridge Washed Out
TTITLE11=Waylon Jennings - Lorena
TTITLE12=Warren Smith - I Don't Believe I'll Fall In Love Today
TTITLE13=Ferlin Husky - Room Full Of Roses
TTITLE14=Frankie Laine - North To Alaska
TTITLE15=Lee Conway - I Fought The Law
TTITLE16=Lacy J Dalton - Takin' It Easy
TTITLE17=Hoyt Axton - Heartbreak Hotel
TTITLE18=Johhny Cash - Big River
TTITLE19=Lynn Anderson - Top Of The World
EXTD=
EXTT0=
EXTT1=
EXTT2=
EXTT3=
EXTT4=
EXTT5=
EXTT6=
EXTT7=
EXTT8=
EXTT9=
EXTT10=
EXTT11=
EXTT12=
EXTT13=
EXTT14=
EXTT15=
EXTT16=
EXTT17=
EXTT18=
EXTT19=
PLAYORDER=
